# xmcd
#
# Track frame offsets:
#	150
#	33535
#	59800
#	77003
#	99618
#	110235
#	140900
#	159615
#	204778
#	219996
#	241602
#	285462
#	306679
#
# Disc length: 4415 seconds
#
# Revision: 0
# Processed by: cddbd v1.5.2PL0 Copyright (c) Steve Scherf et al.
# Submitted via: EZCDAudioConverter 2.1.7.1
#
DISCID=c3113d0d
DTITLE=V/A - Let The Electric Children Play 3/3
DYEAR=1900
DGENRE=
TTITLE0=Peter Bardens - Tear Down The Wall
TTITLE1=Stray - Son Of The Father
TTITLE2=Gerry Rafferty - Don't Count Me Out
TTITLE3=Skin Alley - Nick's Seven
TTITLE4=CMU - Song From The 4th Era
TTITLE5=CMU - A Distant Thought, A Point Of Light
TTITLE6=Decameron - The Ungodly
TTITLE7=Carolanne Pegg - Fair Fortune's Star
TTITLE8=Stray - Move It [Single]
TTITLE9=Renia - Shelter
TTITLE10=Gryphon - Opening Move
TTITLE11=Decameron - Journey's End
TTITLE12=Metro - Criminal World
EXTD=
EXTT0=
EXTT1=
EXTT2=
EXTT3=
EXTT4=
EXTT5=
EXTT6=
EXTT7=
EXTT8=
EXTT9=
EXTT10=
EXTT11=
EXTT12=
PLAYORDER=
